<svg width="666" height="351" viewBox="0 0 666 351" fill="none" xmlns="http://www.w3.org/2000/svg">
<g clip-path="url(#clip0_38_65)">
<path d="M386.76 327.492C398.293 321.88 398.095 306.824 413.45 271.695C413.45 271.695 413.45 271.629 413.45 271.563C444.092 232.142 465.18 254.725 510.057 163.997C510.057 163.931 510.123 163.864 510.189 163.798C542.809 140.753 628.412 165.581 655.101 191.994C655.364 192.258 655.232 192.655 654.903 192.787C626.764 199.786 579.778 179.778 574.045 237.887C574.045 238.217 573.65 238.415 573.386 238.217C538.987 220.19 522.842 235.245 496.218 276.648C496.087 276.78 495.889 276.912 495.757 276.846C411.473 259.215 424.059 324.323 387.881 330.86C385.706 331.256 384.783 328.351 386.76 327.36V327.492Z" fill="#3C3C3B"/>
<path d="M386.629 327.162C399.017 319.833 400.335 300.947 406.2 288.665L410.22 278.298C419.973 253.14 449.035 244.82 466.893 226.859C484.818 209.031 496.877 186.249 508.212 163.798C540.173 137.121 626.5 162.676 655.364 188.494C656.287 189.419 656.88 189.485 657.736 190.74C658.791 192.522 657.67 194.966 655.694 195.362C654.376 195.626 651.871 196.088 650.487 196.352C615.232 199.786 582.941 189.947 577.669 236.698C577.538 238.481 577.01 240.99 574.44 241.452C572.463 241.783 570.882 240.396 569.3 239.802C535.099 220.718 515.79 253.272 498.788 278.1C498.788 278.232 497.866 279.223 497.339 279.355C496.746 279.751 495.428 279.685 495.296 279.553L494.637 279.421C473.088 274.667 447.849 273.016 430.781 289.26C415.756 302.202 409.759 326.832 388.276 331.19C387.287 331.52 385.97 330.926 385.64 329.804C385.179 328.747 385.772 327.492 386.76 327.03L386.629 327.162ZM386.892 327.757C385.179 328.417 386.299 331.19 388.012 330.53C409.232 325.578 414.438 301.146 428.87 287.543C445.937 269.78 473.22 269.846 495.625 274.138L496.35 274.27C496.35 274.27 495.296 274.138 494.966 274.469C494.703 274.601 494.505 274.733 494.241 274.931C493.978 275.261 493.912 275.393 493.978 275.195C513.418 244.028 534.308 212.794 574.572 235.245L574.902 235.377C573.056 234.321 570.882 236.104 570.882 237.49C571.936 229.435 573.386 220.982 577.274 213.719C591.442 183.806 628.477 195.032 654.31 190.211C653.585 190.343 652.86 191.07 652.662 191.862C652.135 192.853 653.717 194.569 653.123 193.909C652.333 193.117 650.488 191.664 649.631 190.872C618.527 165.977 544.918 144.121 511.375 165.581C499.711 188.23 487.058 210.945 468.409 228.708C452.198 244.028 429.924 251.291 416.151 269.252C407.782 281.138 404.751 296.457 399.281 309.928C396.711 316.663 393.943 324.455 386.892 327.889V327.757Z" fill="#1D1D1B"/>
<path d="M346.628 348.425C354.47 346.906 350.845 337.067 351.702 331.388C351.702 322.078 361.389 323.266 367.913 322.87C374.371 322.672 381.818 321.682 383.861 315.541C397.699 278.298 411.209 239.868 417.469 200.644C418.589 194.041 413.91 189.089 410.616 183.872C394.932 162.676 375.03 143.262 351.834 130.584C343.201 125.434 332.789 125.104 323.168 125.698C313.349 126.16 304.782 131.443 296.808 137.055C276.116 153.167 254.633 172.647 243.167 196.418C242.573 197.079 243.167 201.833 243.167 202.89C247.384 232.406 257.335 261.13 266.824 289.392C270.053 298.504 273.282 308.475 277.5 316.993C278.752 319.172 281.256 320.559 284.287 321.219C290.877 322.87 297.665 321.484 304.452 324.125C308.275 326.106 308.604 330.53 308.934 334.162C309.527 338.916 308.472 344.463 312.097 347.83C322.772 351.594 335.293 349.349 346.43 348.623L346.628 348.425ZM346.76 349.085C335.227 350.076 322.575 352.849 311.438 348.887C307.023 345.519 307.616 338.982 306.759 334.228C306.298 331.124 305.573 327.493 303.332 326.7C297.797 324.917 290.68 326.502 283.628 325.313C275.457 324.719 271.437 316.993 268.801 310.192C266.099 303.985 263.595 297.712 261.157 291.439C250.745 262.847 240.531 233.859 236.708 203.418C236.577 200.182 236.049 194.768 237.895 191.994C251.338 167.826 272.03 148.875 294.37 133.225C302.937 127.679 312.69 122.462 323.234 122.396L333.316 122.594C354.206 124.245 370.219 139.829 385.574 152.375C397.897 163.864 410.418 175.618 419.512 190.079C424.981 199.39 420.764 211.21 419.38 221.181C411.999 254.263 401.126 286.288 386.562 316.795C383.531 323.993 374.701 324.851 368.045 324.587C362.114 324.587 352.888 323.2 352.822 331.52C351.966 337.331 355.063 347.83 346.76 349.151V349.085Z" fill="#1D1D1B"/>
<path d="M271.174 328.945C259.773 323.266 259.905 308.211 244.616 273.148C244.616 273.148 244.616 273.148 244.616 273.082C213.973 233.661 192.886 256.244 147.943 165.449C147.943 165.449 147.877 165.317 147.811 165.317C115.125 142.206 29.3906 167.166 2.76745 193.579C2.56976 193.777 2.63566 194.173 2.96515 194.239C31.104 201.305 78.2876 181.165 83.9548 239.471C83.9548 239.736 84.2843 239.934 84.5479 239.802C119.013 221.709 135.158 236.764 161.781 278.232C161.847 278.364 162.045 278.43 162.177 278.43C246.396 260.8 233.941 325.71 269.987 332.445C272.162 332.841 273.085 329.936 271.174 328.945Z" fill="#3C3C3B"/>
<path d="M271.042 329.209C263.991 325.71 261.289 317.918 258.719 311.182C253.249 297.712 250.218 282.458 241.849 270.573C228.01 252.612 205.736 245.348 189.525 230.029C170.941 212.266 158.289 189.551 146.625 166.902C112.226 145.64 40.0663 167.166 8.36899 192.324C7.6441 192.985 5.66714 194.702 4.87635 195.362C4.81045 195.362 4.61276 195.758 5.13995 194.9C5.46944 194.239 5.46944 193.513 5.20585 192.985C5.00815 192.39 4.41506 191.862 3.75607 191.664C32.6198 196.815 70.0503 184.07 83.2301 220.652C85.2071 226.595 86.3932 233.066 87.184 239.207C87.184 237.16 84.3504 236.038 83.0324 236.896L83.3619 236.764L85.9319 235.509C124.549 214.907 145.768 247.527 164.022 276.78C163.693 276.053 162.177 275.459 161.584 275.723L162.309 275.591C184.714 271.299 211.996 271.167 229.064 288.93C243.562 302.532 248.768 326.898 269.922 331.983C271.635 332.643 272.689 329.87 270.976 329.209H271.042ZM271.305 328.615C272.294 329.011 272.887 330.332 272.426 331.388C272.096 332.445 270.778 333.105 269.79 332.775C248.307 328.351 242.376 303.721 227.351 290.845C210.217 274.601 185.044 276.317 163.429 281.072C161.979 281.534 160.134 281.138 159.343 279.619C148.206 264.035 137.069 243.962 118.42 236.962C107.415 233.132 95.2896 238.019 85.3388 242.971C83.2301 243.697 80.7918 241.915 80.7259 239.802V239.67L80.5282 238.349C75.3222 191.598 42.8341 201.371 7.71 197.937L4.87635 197.409L3.42658 197.145L2.70169 197.013L2.1745 196.881C-0.0660603 196.352 -0.725049 192.787 1.12012 191.532L1.64731 191.07L2.76759 190.145C31.7631 164.327 117.366 138.772 149.92 165.317C161.254 187.702 173.314 210.483 191.172 228.378C209.031 246.339 238.158 254.791 247.911 279.817L251.931 290.184C257.796 302.532 259.114 321.351 271.437 328.747L271.305 328.615Z" fill="#1D1D1B"/>
<path d="M329.758 175.024C255.622 175.024 247.977 226.001 247.977 226.001C245.341 214.577 243.694 204.474 243.628 197.475C243.628 184.797 296.413 124.047 323.234 124.047H335.227C361.982 124.047 417.403 184.797 417.403 197.475C417.403 204.21 415.822 213.851 413.383 224.746C413.383 224.746 403.894 175.024 329.758 175.024ZM329.758 133.358C322.311 133.358 316.314 139.631 316.314 147.29C316.314 154.95 322.311 161.223 329.758 161.223C337.204 161.223 343.201 154.95 343.201 147.29C343.201 139.631 337.204 133.358 329.758 133.358Z" fill="#E1E1E0"/>
<path d="M329.758 175.354C287.253 175.684 253.513 195.164 247.977 239.934L245.078 226.661C243.299 214.511 237.434 200.512 244.221 189.023C257.796 167.959 275.721 150.856 295.161 135.471C304.914 127.943 316.776 121.34 329.494 122.264C342.213 120.745 354.668 127.085 364.75 134.216C385.047 148.875 403.235 166.044 416.942 187.306C421.028 192.853 421.291 200.446 420.039 207.116C418.853 217.219 415.558 229.236 413.449 239.207L410.089 225.407C401.324 190.872 362.773 174.826 329.758 175.354ZM329.758 174.694C364.487 173.967 406.398 186.514 416.613 224.152L410.154 224.02C411.538 213.323 417.403 200.578 411.011 190.806C398.161 170.996 380.434 153.101 361.653 138.64C352.032 131.575 342.015 125.236 329.494 125.83C298.654 122.924 262.343 166.704 248.307 191.202C247.187 193.777 246 195.758 246.198 198.73C246.857 207.71 248.702 216.558 250.745 225.341L245.012 225.539C253.052 187.306 295.161 173.901 329.692 174.694H329.758Z" fill="#1D1D1B"/>
<path d="M329.758 133.688C322.509 133.688 320.005 141.612 319.082 147.29C317.501 153.828 322.575 160.959 329.758 159.44C343.004 157.195 342.938 134.942 329.758 133.622V133.688ZM329.758 133.027C353.218 132.037 351.307 164.591 329.758 163.072C310.186 159.44 306.627 133.027 329.758 133.027Z" fill="#1D1D1B"/>
<path d="M374.371 314.22C364.487 317.125 349.132 308.871 343.531 333.501C342.608 337.661 339.05 340.633 334.898 340.567L325.606 340.435C322.839 340.435 320.532 338.52 319.741 335.813C312.031 308.805 299.51 318.248 286.924 314.22C276.512 310.918 256.413 244.16 264.254 225.935C272.096 207.71 383.663 206.719 394.141 225.737C404.026 243.565 385.64 310.852 374.371 314.22Z" fill="#E52333"/>
<path d="M374.569 314.88C366.002 316.861 355.327 313.23 349.396 321.55C346.694 325.049 345.442 329.473 344.453 333.832C343.662 338.982 337.995 342.68 333.185 342.02L326.331 342.218C322.048 342.746 318.226 339.312 317.303 335.02C311.833 319.437 306.759 318.38 291.141 318.512C288.307 318.05 285.342 317.918 282.838 315.739C271.569 302.995 267.681 285.958 262.87 270.176C259.641 254.857 254.106 238.283 260.235 222.633C262.739 218.473 267.088 216.294 270.91 214.577C289.23 207.512 307.748 206.455 326.792 205.465C345.442 205.135 364.025 205.795 383.07 211.54C387.815 213.323 392.691 214.907 397.634 220.124C402.049 225.737 401.983 230.755 402.378 236.83C401.917 256.244 396.184 273.874 389.33 291.505C385.376 299.627 382.872 310.192 374.635 314.88H374.569ZM374.174 313.626C388.737 303.325 397.172 243.301 388.408 228.378C379.38 222.237 365.014 221.114 353.547 219.86C327.781 217.945 299.642 216.756 274.864 224.35C271.767 225.869 269.197 226.133 268.274 229.699C264.979 250.829 272.03 273.676 278.686 293.816C280.927 299.561 283.299 306.098 287.319 310.456C294.107 313.824 306.232 310.522 312.822 317.456C317.435 321.88 319.675 327.757 321.257 333.7C321.916 336.737 322.97 338.652 326.331 338.718L333.185 339.114C344.321 340.831 342.41 326.436 348.341 320.691C354.404 312.305 365.739 315.541 374.174 313.56V313.626Z" fill="#8D1E2C"/>
<path d="M288.9 240.264C275.259 240.264 271.437 233.595 270.383 230.755C269.262 227.652 269.987 225.275 270.58 224.746C276.907 219.53 305.111 215.238 333.514 215.238C344.782 215.238 354.931 215.898 363.498 217.087C355.129 217.087 346.1 219.067 336.611 223.029C331.405 225.208 326.331 227.784 321.454 230.293C314.535 233.859 308.011 237.16 302.475 238.547C297.533 239.736 292.92 240.396 288.834 240.396L288.9 240.264Z" fill="#8D1E2C"/>
<path d="M333.58 218.473C335.359 218.473 337.138 218.473 338.852 218.473C337.731 218.869 336.611 219.332 335.425 219.794C330.087 221.973 324.947 224.614 320.005 227.123C313.283 230.557 306.891 233.793 301.751 235.113C297.006 236.236 292.722 236.83 288.9 236.83C281.915 236.83 276.709 234.849 274.337 231.217C273.085 229.302 273.019 227.586 273.15 226.859C279.015 222.831 304.65 218.407 333.58 218.407M333.58 211.87C305.111 211.87 275.918 216.03 268.538 222.171C263.793 226.133 266.363 243.565 288.9 243.565C292.986 243.565 297.797 242.971 303.266 241.651C313.217 239.207 325.342 231.217 337.929 226.001C348.012 221.841 356.578 220.322 363.63 220.322C381.422 220.322 390.253 229.699 392.559 229.699C393.482 229.699 393.35 228.18 392.361 224.02C384.981 215.37 359.544 211.87 333.514 211.87H333.58Z" fill="#8D1E2C"/>
</g>
<path d="M53.096 76.941C53.096 76.8063 53.2307 76.739 53.5 76.739C53.702 76.739 53.8703 76.8063 54.005 76.941C54.207 77.0083 54.308 77.0757 54.308 77.143C53.6347 82.395 53.298 87.1757 53.298 91.485C53.298 92.0237 53.197 92.4277 52.995 92.697C52.793 92.899 52.389 93 51.783 93H7.141C6.939 93 6.838 92.798 6.838 92.394C6.838 91.99 6.939 91.788 7.141 91.788C9.29567 91.788 10.8443 91.6197 11.787 91.283C12.797 90.9463 13.4703 90.3067 13.807 89.364C14.1437 88.354 14.312 86.839 14.312 84.819V38.056C14.312 36.036 14.1437 34.5547 13.807 33.612C13.4703 32.6693 12.797 32.0297 11.787 31.693C10.777 31.289 9.22833 31.087 7.141 31.087C6.939 31.087 6.838 30.885 6.838 30.481C6.838 30.077 6.939 29.875 7.141 29.875H49.965C50.6383 29.875 50.975 30.178 50.975 30.784L51.177 44.217C51.177 44.3517 50.975 44.4527 50.571 44.52C50.2343 44.5873 50.0323 44.52 49.965 44.318C48.8877 40.4127 47.0697 37.5173 44.511 35.632C41.9523 33.7467 38.5857 32.804 34.411 32.804H31.381C29.361 32.804 27.8797 33.2417 26.937 34.117C25.9943 34.9923 25.523 36.339 25.523 38.157V58.761H33.906C37.8113 58.761 40.8077 58.0877 42.895 56.741C44.9823 55.3943 46.026 53.509 46.026 51.085C46.026 50.883 46.1943 50.782 46.531 50.782C46.935 50.782 47.137 50.883 47.137 51.085L47.036 60.175L47.137 65.023C47.2717 67.3123 47.339 69.1303 47.339 70.477C47.339 70.6117 47.137 70.679 46.733 70.679C46.329 70.679 46.127 70.6117 46.127 70.477C46.127 67.7163 45.0497 65.5617 42.895 64.013C40.8077 62.397 37.7777 61.589 33.805 61.589H25.523V84.415C25.523 86.3677 25.8933 87.8153 26.634 88.758C27.3747 89.7007 28.553 90.172 30.169 90.172H33.502C38.754 90.172 42.9623 89.0947 46.127 86.94C49.2917 84.7853 51.6147 81.4523 53.096 76.941ZM85.0885 94.313C81.7892 94.313 78.8939 93.9427 76.4025 93.202V112.594C76.4025 114.614 76.6045 116.095 77.0085 117.038C77.4799 117.981 78.3215 118.62 79.5335 118.957C80.8129 119.361 82.7655 119.563 85.3915 119.563C85.5935 119.563 85.6945 119.765 85.6945 120.169C85.6945 120.573 85.5935 120.775 85.3915 120.775C82.9002 120.775 80.9475 120.741 79.5335 120.674L71.5545 120.573L65.5955 120.674C64.5855 120.741 63.1715 120.775 61.3535 120.775C61.1515 120.775 61.0505 120.573 61.0505 120.169C61.0505 119.765 61.1515 119.563 61.3535 119.563C62.9695 119.563 64.1479 119.361 64.8885 118.957C65.6965 118.62 66.2352 117.981 66.5045 117.038C66.8412 116.095 67.0095 114.614 67.0095 112.594V65.831C67.0095 63.6763 66.7739 62.1277 66.3025 61.185C65.8312 60.2423 64.9895 59.771 63.7775 59.771C62.7002 59.771 61.1515 60.2423 59.1315 61.185H58.9295C58.7275 61.185 58.5592 61.0167 58.4245 60.68C58.2225 60.3433 58.1889 60.1413 58.3235 60.074L72.6655 53.105C72.8002 53.0377 72.9685 53.004 73.1705 53.004C73.8439 53.004 74.4499 53.5763 74.9885 54.721C75.5945 55.8657 75.9985 57.4143 76.2005 59.367C81.1159 54.923 86.1659 52.701 91.3505 52.701C94.1785 52.701 96.8045 53.4417 99.2285 54.923C101.72 56.4043 103.706 58.559 105.188 61.387C106.669 64.215 107.41 67.5143 107.41 71.285C107.41 76.6717 106.299 81.1157 104.077 84.617C101.855 88.051 99.0265 90.5423 95.5925 92.091C92.2259 93.5723 88.7245 94.313 85.0885 94.313ZM84.6845 58.357C81.6545 58.357 78.8939 59.4343 76.4025 61.589V62.397V86.738C77.8839 88.4213 79.4325 89.7007 81.0485 90.576C82.6645 91.384 84.6509 91.788 87.0075 91.788C93.8082 91.788 97.2085 85.9973 97.2085 74.416C97.2085 69.2987 95.9965 65.3597 93.5725 62.599C91.2159 59.771 88.2532 58.357 84.6845 58.357ZM160.909 86.435C161.111 86.435 161.279 86.6033 161.414 86.94C161.616 87.2767 161.616 87.4787 161.414 87.546L147.476 94.313C147.341 94.3803 147.173 94.414 146.971 94.414C146.297 94.414 145.691 93.707 145.153 92.293C144.681 90.8117 144.412 88.8253 144.345 86.334C139.901 91.586 135.086 94.212 129.902 94.212C126.198 94.212 123.269 93.0673 121.115 90.778C119.027 88.4213 117.984 85.3577 117.984 81.587V66.74C117.984 62.3633 116.94 60.175 114.853 60.175C114.112 60.175 113.27 60.4107 112.328 60.882H112.227C111.957 60.882 111.755 60.7137 111.621 60.377C111.486 59.973 111.52 59.7373 111.722 59.67L125.256 53.206L125.761 53.105C126.097 53.105 126.434 53.2733 126.771 53.61C127.175 53.8793 127.377 54.1487 127.377 54.418V76.739C127.377 84.011 130.171 87.647 135.76 87.647C137.241 87.647 138.722 87.344 140.204 86.738C141.752 86.0647 143.133 85.1557 144.345 84.011V66.74C144.345 62.3633 143.301 60.175 141.214 60.175C140.473 60.175 139.598 60.4107 138.588 60.882H138.487C138.285 60.882 138.116 60.7137 137.982 60.377C137.847 59.973 137.881 59.7373 138.083 59.67L151.617 53.206C151.751 53.1387 151.92 53.105 152.122 53.105C152.458 53.105 152.795 53.2733 153.132 53.61C153.536 53.8793 153.738 54.1487 153.738 54.418V81.284C153.738 83.5733 153.94 85.1893 154.344 86.132C154.815 87.0747 155.556 87.546 156.566 87.546C157.508 87.546 158.889 87.1757 160.707 86.435H160.909ZM238.162 91.788C238.431 91.788 238.566 91.99 238.566 92.394C238.566 92.798 238.431 93 238.162 93C236.411 93 235.031 92.9663 234.021 92.899L227.961 92.798L222.103 92.899C221.026 92.9663 219.612 93 217.861 93C217.659 93 217.558 92.798 217.558 92.394C217.558 91.99 217.659 91.788 217.861 91.788C219.948 91.788 221.362 91.3167 222.103 90.374C222.911 89.364 223.315 87.5123 223.315 84.819V70.275C223.315 66.639 222.675 63.9457 221.396 62.195C220.184 60.4443 218.299 59.569 215.74 59.569C213.989 59.569 212.272 59.9393 210.589 60.68C208.906 61.4207 207.458 62.4307 206.246 63.71V64.316V84.819C206.246 87.5123 206.616 89.364 207.357 90.374C208.165 91.3167 209.613 91.788 211.7 91.788C211.969 91.788 212.104 91.99 212.104 92.394C212.104 92.798 211.969 93 211.7 93C209.949 93 208.569 92.9663 207.559 92.899L201.499 92.798L195.641 92.899C194.564 92.9663 193.15 93 191.399 93C191.197 93 191.096 92.798 191.096 92.394C191.096 91.99 191.197 91.788 191.399 91.788C193.486 91.788 194.9 91.3167 195.641 90.374C196.449 89.364 196.853 87.5123 196.853 84.819V70.275C196.853 66.639 196.213 63.9457 194.934 62.195C193.722 60.4443 191.837 59.569 189.278 59.569C187.662 59.569 186.046 59.9057 184.43 60.579C182.881 61.185 181.501 62.0603 180.289 63.205V84.819C180.289 87.5123 180.659 89.364 181.4 90.374C182.208 91.3167 183.656 91.788 185.743 91.788C185.945 91.788 186.046 91.99 186.046 92.394C186.046 92.798 185.945 93 185.743 93C183.992 93 182.612 92.9663 181.602 92.899L175.542 92.798L169.583 92.899C168.573 92.9663 167.193 93 165.442 93C165.24 93 165.139 92.798 165.139 92.394C165.139 91.99 165.24 91.788 165.442 91.788C167.529 91.788 168.943 91.3167 169.684 90.374C170.425 89.364 170.795 87.5123 170.795 84.819V65.831C170.795 63.7437 170.526 62.2287 169.987 61.286C169.516 60.276 168.741 59.771 167.664 59.771C166.519 59.771 164.903 60.2423 162.816 61.185H162.614C162.412 61.185 162.244 61.0167 162.109 60.68C162.042 60.3433 162.075 60.1413 162.21 60.074L176.249 53.206C176.653 53.0713 176.889 53.004 176.956 53.004C177.697 53.004 178.404 53.7447 179.077 55.226C179.75 56.64 180.154 58.559 180.289 60.983C184.868 55.529 189.783 52.802 195.035 52.802C198.2 52.802 200.725 53.5763 202.61 55.125C204.495 56.6737 205.64 58.8957 206.044 61.791C210.69 55.7983 215.841 52.802 221.497 52.802C225.133 52.802 227.894 53.8457 229.779 55.933C231.732 58.0203 232.708 61.185 232.708 65.427V84.819C232.708 87.5123 233.078 89.364 233.819 90.374C234.627 91.3167 236.075 91.788 238.162 91.788ZM266.376 94.313C263.076 94.313 260.181 93.9427 257.69 93.202V112.594C257.69 114.614 257.892 116.095 258.296 117.038C258.767 117.981 259.609 118.62 260.821 118.957C262.1 119.361 264.053 119.563 266.679 119.563C266.881 119.563 266.982 119.765 266.982 120.169C266.982 120.573 266.881 120.775 266.679 120.775C264.187 120.775 262.235 120.741 260.821 120.674L252.842 120.573L246.883 120.674C245.873 120.741 244.459 120.775 242.641 120.775C242.439 120.775 242.338 120.573 242.338 120.169C242.338 119.765 242.439 119.563 242.641 119.563C244.257 119.563 245.435 119.361 246.176 118.957C246.984 118.62 247.522 117.981 247.792 117.038C248.128 116.095 248.297 114.614 248.297 112.594V65.831C248.297 63.6763 248.061 62.1277 247.59 61.185C247.118 60.2423 246.277 59.771 245.065 59.771C243.987 59.771 242.439 60.2423 240.419 61.185H240.217C240.015 61.185 239.846 61.0167 239.712 60.68C239.51 60.3433 239.476 60.1413 239.611 60.074L253.953 53.105C254.087 53.0377 254.256 53.004 254.458 53.004C255.131 53.004 255.737 53.5763 256.276 54.721C256.882 55.8657 257.286 57.4143 257.488 59.367C262.403 54.923 267.453 52.701 272.638 52.701C275.466 52.701 278.092 53.4417 280.516 54.923C283.007 56.4043 284.993 58.559 286.475 61.387C287.956 64.215 288.697 67.5143 288.697 71.285C288.697 76.6717 287.586 81.1157 285.364 84.617C283.142 88.051 280.314 90.5423 276.88 92.091C273.513 93.5723 270.012 94.313 266.376 94.313ZM265.972 58.357C262.942 58.357 260.181 59.4343 257.69 61.589V62.397V86.738C259.171 88.4213 260.72 89.7007 262.336 90.576C263.952 91.384 265.938 91.788 268.295 91.788C275.095 91.788 278.496 85.9973 278.496 74.416C278.496 69.2987 277.284 65.3597 274.86 62.599C272.503 59.771 269.54 58.357 265.972 58.357ZM315.734 94.313C311.559 94.313 307.89 93.3703 304.725 91.485C301.628 89.5323 299.237 86.94 297.554 83.708C295.871 80.4087 295.029 76.84 295.029 73.002C295.029 68.6253 296.14 64.922 298.362 61.892C300.584 58.7947 303.412 56.5053 306.846 55.024C310.28 53.4753 313.815 52.701 317.451 52.701C321.626 52.701 325.262 53.6773 328.359 55.63C331.456 57.5827 333.813 60.175 335.429 63.407C337.112 66.5717 337.954 69.972 337.954 73.608C337.954 77.648 336.944 81.2503 334.924 84.415C332.904 87.5123 330.177 89.9363 326.743 91.687C323.376 93.4377 319.707 94.313 315.734 94.313ZM318.764 92.192C321.39 92.192 323.376 90.9127 324.723 88.354C326.137 85.728 326.844 81.991 326.844 77.143C326.844 72.4297 326.238 68.3897 325.026 65.023C323.814 61.6563 322.232 59.1313 320.279 57.448C318.326 55.6973 316.239 54.822 314.017 54.822C308.63 54.822 305.937 59.6363 305.937 69.265C305.937 73.7763 306.509 77.7827 307.654 81.284C308.799 84.718 310.347 87.4113 312.3 89.364C314.253 91.2493 316.407 92.192 318.764 92.192ZM434.271 111.887C434.271 105.76 432.789 101.08 429.827 97.848C426.864 94.616 422.588 93 417 93H367.914C367.779 93 367.712 92.798 367.712 92.394C367.712 91.99 367.779 91.788 367.914 91.788C370.27 91.788 371.987 91.6197 373.065 91.283C374.142 90.9463 374.883 90.3067 375.287 89.364C375.691 88.354 375.893 86.839 375.893 84.819V38.056C375.893 36.036 375.691 34.5547 375.287 33.612C374.883 32.6693 374.142 32.0297 373.065 31.693C371.987 31.289 370.27 31.087 367.914 31.087C367.779 31.087 367.712 30.885 367.712 30.481C367.712 30.077 367.779 29.875 367.914 29.875L373.368 29.976C376.465 30.1107 378.956 30.178 380.842 30.178C383.131 30.178 386.026 30.1107 389.528 29.976L395.487 29.875C395.621 29.875 395.689 30.077 395.689 30.481C395.689 30.885 395.621 31.087 395.487 31.087C392.995 31.087 391.177 31.289 390.033 31.693C388.888 32.0297 388.114 32.6693 387.71 33.612C387.306 34.5547 387.104 36.036 387.104 38.056V84.617C387.104 86.9063 387.171 88.4213 387.306 89.162C387.508 89.9027 387.912 90.374 388.518 90.576C389.124 90.778 390.336 90.879 392.154 90.879H411.041C413.061 90.879 414.407 90.778 415.081 90.576C415.754 90.374 416.158 89.9027 416.293 89.162C416.495 88.4213 416.596 86.9063 416.596 84.617V38.056C416.596 36.036 416.394 34.5547 415.99 33.612C415.586 32.6693 414.811 32.0297 413.667 31.693C412.522 31.289 410.704 31.087 408.213 31.087C408.078 31.087 408.011 30.885 408.011 30.481C408.011 30.077 408.078 29.875 408.213 29.875L414.172 29.976C417.673 30.1107 420.568 30.178 422.858 30.178C424.743 30.178 427.234 30.1107 430.332 29.976L435.786 29.875C435.92 29.875 435.988 30.077 435.988 30.481C435.988 30.885 435.92 31.087 435.786 31.087C433.429 31.087 431.712 31.289 430.635 31.693C429.557 32.0297 428.817 32.6693 428.413 33.612C428.009 34.5547 427.807 36.036 427.807 38.056V84.819C427.807 87.3103 427.908 88.9937 428.11 89.869C428.379 90.677 428.884 91.2157 429.625 91.485C430.433 91.687 432.015 91.788 434.372 91.788C434.91 91.788 435.247 91.8553 435.382 91.99C435.584 92.1247 435.685 92.4613 435.685 93C435.685 94.5487 435.651 95.828 435.584 96.838C435.449 100.609 435.382 105.625 435.382 111.887C435.382 112.224 435.18 112.392 434.776 112.392C434.439 112.392 434.271 112.224 434.271 111.887ZM478.342 86.334C478.477 86.334 478.612 86.4687 478.746 86.738C478.948 87.0073 478.982 87.2093 478.847 87.344C476.356 89.768 473.831 91.5187 471.272 92.596C468.714 93.6733 465.919 94.212 462.889 94.212C458.647 94.212 454.978 93.3367 451.88 91.586C448.783 89.768 446.426 87.3777 444.81 84.415C443.194 81.385 442.386 78.153 442.386 74.719C442.386 70.8137 443.396 67.2113 445.416 63.912C447.436 60.5453 450.197 57.9193 453.698 56.034C457.2 54.0813 461.105 53.105 465.414 53.105C469.589 53.105 472.787 54.014 475.009 55.832C477.231 57.5827 478.342 60.0067 478.342 63.104C478.342 65.0567 477.972 66.033 477.231 66.033H471.07L452.89 66.235C452.688 67.5143 452.587 68.9283 452.587 70.477C452.587 76.2677 453.934 80.8463 456.627 84.213C459.388 87.5797 463.159 89.263 467.939 89.263C469.623 89.263 471.373 89.0273 473.191 88.556C475.009 88.0847 476.659 87.3777 478.14 86.435L478.342 86.334ZM461.677 55.125C459.657 55.125 457.907 55.933 456.425 57.549C454.944 59.165 453.867 61.387 453.193 64.215L467.535 63.912C467.333 58.054 465.381 55.125 461.677 55.125ZM532.172 91.788C532.307 91.788 532.374 91.99 532.374 92.394C532.374 92.798 532.307 93 532.172 93C530.287 93 528.839 92.9663 527.829 92.899L522.173 92.798L516.214 92.899C515.137 92.9663 513.655 93 511.77 93C511.568 93 511.467 92.798 511.467 92.394C511.467 91.99 511.568 91.788 511.77 91.788C513.386 91.788 514.564 91.6197 515.305 91.283C516.113 90.9463 516.652 90.3067 516.921 89.364C517.19 88.354 517.325 86.839 517.325 84.819V74.719H499.549V84.819C499.549 86.839 499.684 88.354 499.953 89.364C500.222 90.3067 500.727 90.9463 501.468 91.283C502.209 91.6197 503.387 91.788 505.003 91.788C505.138 91.788 505.205 91.99 505.205 92.394C505.205 92.798 505.138 93 505.003 93C503.118 93 501.67 92.9663 500.66 92.899L495.004 92.798L489.146 92.899C488.069 92.9663 486.554 93 484.601 93C484.399 93 484.298 92.798 484.298 92.394C484.298 91.99 484.399 91.788 484.601 91.788C486.217 91.788 487.395 91.6197 488.136 91.283C488.944 90.9463 489.483 90.3067 489.752 89.364C490.021 88.354 490.156 86.839 490.156 84.819V66.74C490.156 62.3633 489.112 60.175 487.025 60.175C486.284 60.175 485.409 60.4107 484.399 60.882H484.298C484.096 60.882 483.928 60.7137 483.793 60.377C483.658 59.973 483.692 59.7373 483.894 59.67L497.428 53.206C497.563 53.1387 497.731 53.105 497.933 53.105C498.27 53.105 498.606 53.2733 498.943 53.61C499.347 53.8793 499.549 54.1487 499.549 54.418V72.295H517.325V66.74C517.325 62.3633 516.281 60.175 514.194 60.175C513.453 60.175 512.578 60.4107 511.568 60.882H511.467C511.265 60.882 511.097 60.7137 510.962 60.377C510.827 59.973 510.861 59.7373 511.063 59.67L524.597 53.206C524.732 53.1387 524.9 53.105 525.102 53.105C525.439 53.105 525.775 53.2733 526.112 53.61C526.516 53.8793 526.718 54.1487 526.718 54.418V84.819C526.718 86.839 526.853 88.354 527.122 89.364C527.391 90.3067 527.896 90.9463 528.637 91.283C529.378 91.6197 530.556 91.788 532.172 91.788ZM611.487 91.788C611.756 91.788 611.891 91.99 611.891 92.394C611.891 92.798 611.756 93 611.487 93C609.736 93 608.356 92.9663 607.346 92.899L601.286 92.798L595.428 92.899C594.351 92.9663 592.937 93 591.186 93C590.984 93 590.883 92.798 590.883 92.394C590.883 91.99 590.984 91.788 591.186 91.788C593.273 91.788 594.687 91.3167 595.428 90.374C596.236 89.364 596.64 87.5123 596.64 84.819V70.275C596.64 66.639 596 63.9457 594.721 62.195C593.509 60.4443 591.624 59.569 589.065 59.569C587.314 59.569 585.597 59.9393 583.914 60.68C582.231 61.4207 580.783 62.4307 579.571 63.71V64.316V84.819C579.571 87.5123 579.941 89.364 580.682 90.374C581.49 91.3167 582.938 91.788 585.025 91.788C585.294 91.788 585.429 91.99 585.429 92.394C585.429 92.798 585.294 93 585.025 93C583.274 93 581.894 92.9663 580.884 92.899L574.824 92.798L568.966 92.899C567.889 92.9663 566.475 93 564.724 93C564.522 93 564.421 92.798 564.421 92.394C564.421 91.99 564.522 91.788 564.724 91.788C566.811 91.788 568.225 91.3167 568.966 90.374C569.774 89.364 570.178 87.5123 570.178 84.819V70.275C570.178 66.639 569.538 63.9457 568.259 62.195C567.047 60.4443 565.162 59.569 562.603 59.569C560.987 59.569 559.371 59.9057 557.755 60.579C556.206 61.185 554.826 62.0603 553.614 63.205V84.819C553.614 87.5123 553.984 89.364 554.725 90.374C555.533 91.3167 556.981 91.788 559.068 91.788C559.27 91.788 559.371 91.99 559.371 92.394C559.371 92.798 559.27 93 559.068 93C557.317 93 555.937 92.9663 554.927 92.899L548.867 92.798L542.908 92.899C541.898 92.9663 540.518 93 538.767 93C538.565 93 538.464 92.798 538.464 92.394C538.464 91.99 538.565 91.788 538.767 91.788C540.854 91.788 542.268 91.3167 543.009 90.374C543.75 89.364 544.12 87.5123 544.12 84.819V65.831C544.12 63.7437 543.851 62.2287 543.312 61.286C542.841 60.276 542.066 59.771 540.989 59.771C539.844 59.771 538.228 60.2423 536.141 61.185H535.939C535.737 61.185 535.569 61.0167 535.434 60.68C535.367 60.3433 535.4 60.1413 535.535 60.074L549.574 53.206C549.978 53.0713 550.214 53.004 550.281 53.004C551.022 53.004 551.729 53.7447 552.402 55.226C553.075 56.64 553.479 58.559 553.614 60.983C558.193 55.529 563.108 52.802 568.36 52.802C571.525 52.802 574.05 53.5763 575.935 55.125C577.82 56.6737 578.965 58.8957 579.369 61.791C584.015 55.7983 589.166 52.802 594.822 52.802C598.458 52.802 601.219 53.8457 603.104 55.933C605.057 58.0203 606.033 61.185 606.033 65.427V84.819C606.033 87.5123 606.403 89.364 607.144 90.374C607.952 91.3167 609.4 91.788 611.487 91.788ZM639.701 94.313C636.402 94.313 633.506 93.9427 631.015 93.202V112.594C631.015 114.614 631.217 116.095 631.621 117.038C632.092 117.981 632.934 118.62 634.146 118.957C635.425 119.361 637.378 119.563 640.004 119.563C640.206 119.563 640.307 119.765 640.307 120.169C640.307 120.573 640.206 120.775 640.004 120.775C637.513 120.775 635.56 120.741 634.146 120.674L626.167 120.573L620.208 120.674C619.198 120.741 617.784 120.775 615.966 120.775C615.764 120.775 615.663 120.573 615.663 120.169C615.663 119.765 615.764 119.563 615.966 119.563C617.582 119.563 618.76 119.361 619.501 118.957C620.309 118.62 620.848 117.981 621.117 117.038C621.454 116.095 621.622 114.614 621.622 112.594V65.831C621.622 63.6763 621.386 62.1277 620.915 61.185C620.444 60.2423 619.602 59.771 618.39 59.771C617.313 59.771 615.764 60.2423 613.744 61.185H613.542C613.34 61.185 613.172 61.0167 613.037 60.68C612.835 60.3433 612.801 60.1413 612.936 60.074L627.278 53.105C627.413 53.0377 627.581 53.004 627.783 53.004C628.456 53.004 629.062 53.5763 629.601 54.721C630.207 55.8657 630.611 57.4143 630.813 59.367C635.728 54.923 640.778 52.701 645.963 52.701C648.791 52.701 651.417 53.4417 653.841 54.923C656.332 56.4043 658.319 58.559 659.8 61.387C661.281 64.215 662.022 67.5143 662.022 71.285C662.022 76.6717 660.911 81.1157 658.689 84.617C656.467 88.051 653.639 90.5423 650.205 92.091C646.838 93.5723 643.337 94.313 639.701 94.313ZM639.297 58.357C636.267 58.357 633.506 59.4343 631.015 61.589V62.397V86.738C632.496 88.4213 634.045 89.7007 635.661 90.576C637.277 91.384 639.263 91.788 641.62 91.788C648.421 91.788 651.821 85.9973 651.821 74.416C651.821 69.2987 650.609 65.3597 648.185 62.599C645.828 59.771 642.866 58.357 639.297 58.357Z" fill="#14070E"/>
<defs>
<clipPath id="clip0_38_65">
<rect width="658" height="229" fill="white" transform="translate(0 122)"/>
</clipPath>
</defs>
</svg>
